<svg xmlns="http://www.w3.org/2000/svg" viewBox="0 0 268.93799 409"><path d="M268.938,404a5,5,0,0,1-5,5H5a5,5,0,0,1-5-5V5A5,5,0,0,1,5,0H263.938a5,5,0,0,1,5,5V404" fill="#44444f"/><path d="M268.938,294.59363l-14.26592,8.2362a5,5,0,0,1-5.00006-8.65991L268.938,283.047" fill="#65e496" fill-rule="evenodd"/><path d="M268.938,267.59362l-14.26593,8.23621a5,5,0,0,1-5.00006-8.65991L268.938,256.047" fill="#65e496" fill-rule="evenodd"/><path d="M5,0H37.906V409H5a5,5,0,0,1-5-5V5A5,5,0,0,1,5,0Z" fill="#3d3d47"/></svg>